<svg id="_x31__px" height="512" viewBox="0 0 24 24" width="512" xmlns="http://www.w3.org/2000/svg"><path d="m15.5 24c-1.354 0-2.65-.59-3.5-1.586-.85.996-2.146 1.586-3.5 1.586-1.93 0-3.5-1.493-3.5-3.328 0-.193.11-.368.284-.451.175-.083.38-.06.53.063.73.591 1.061.34 1.311.058l.909-1.29c.739-1.046 2.211-1.36 3.348-.717.381.215.855.215 1.236 0 1.138-.643 2.608-.329 3.348.717l.942 1.332c.215.239.545.492 1.277-.1.15-.122.354-.145.53-.063.175.083.285.258.285.451 0 1.835-1.57 3.328-3.5 3.328zm-3.5-2.65c.272 0 .525.121.691.331.658.826 1.707 1.319 2.809 1.319 1.027 0 1.912-.58 2.296-1.407-.617.143-1.195-.053-1.671-.59l-.976-1.375c-.446-.632-1.342-.819-2.039-.424-.686.388-1.535.388-2.221 0-.698-.394-1.593-.208-2.039.424l-.942 1.332c-.498.565-1.088.771-1.705.63.383.829 1.269 1.41 2.297 1.41 1.102 0 2.151-.493 2.809-1.32.166-.209.419-.33.691-.33z"/><path d="m22.5 15c-.158 0-.312-.076-.407-.209l-2.703-3.785c-.533-.748-1.327-1.24-2.233-1.387s-1.814.069-2.558.61c-1.555 1.13-3.643 1.13-5.197 0-.743-.541-1.653-.757-2.558-.61-.906.147-1.7.64-2.233 1.387l-2.703 3.785c-.126.177-.354.251-.56.186-.207-.067-.348-.26-.348-.477 0-1.405.135-3.099.4-5.034.506-3.686 3.701-6.466 7.43-6.466h3.04c2.159 0 4.197-.946 5.591-2.595.298-.309.675-.45 1.065-.396.387.048.722.273.919.616 1.069 1.854 3.555 6.919 3.555 13.875 0 .217-.141.41-.348.476-.049.016-.101.024-.152.024zm-5.901-6.426c.238 0 .478.019.717.058 1.173.19 2.198.827 2.889 1.793l1.749 2.449c-.339-5.873-2.431-10.112-3.375-11.75-.054-.094-.134-.117-.176-.123-.046-.003-.126-.001-.202.075-1.56 1.849-3.876 2.924-6.331 2.924h-3.04c-3.232 0-6 2.408-6.439 5.602-.162 1.187-.275 2.277-.336 3.261l1.741-2.438c.69-.966 1.716-1.603 2.889-1.793 1.168-.191 2.343.089 3.304.788 1.203.874 2.818.874 4.021 0 .764-.556 1.663-.846 2.589-.846z"/></svg>