<svg id="Icons" height="512" viewBox="0 0 74 74" width="512" xmlns="http://www.w3.org/2000/svg"><path d="m49.42 40.141a1 1 0 0 1 -.937-.65 42.206 42.206 0 0 1 -2.454-8.527l-.02-.223a1.1 1.1 0 0 1 0-.236l.54-5.13c0-.034.01-.068.017-.1l4.145-19.729a1 1 0 0 1 1.677-.512l9.96 9.71a1 1 0 0 1 .126 1.283l-3.74 5.431a1 1 0 0 1 -1.405.246l-6.918-4.942-1.882 8.874-.524 4.973c0 .041.009.092.013.153a40.84 40.84 0 0 0 2.338 8.027 1 1 0 0 1 -.936 1.352zm1.442-25.516 6.8 4.86 2.684-3.9-8.046-7.847z"/><path d="m49.169 65.74a1 1 0 0 1 -.073-2 9.916 9.916 0 0 0 7.231-3.774 31.145 31.145 0 0 0 -1.361-4.8 1 1 0 0 1 1.888-.657 28.53 28.53 0 0 1 1.51 5.6 1 1 0 0 1 -.143.637 11.781 11.781 0 0 1 -8.977 4.991q-.037.003-.075.003z"/><path d="m53.34 49.311a1 1 0 0 1 -.919-.6l-.448-1.037c-.26-.548-.524-1.106-.767-1.653a1 1 0 0 1 1.828-.812c.237.533.493 1.076.76 1.638l.464 1.073a1 1 0 0 1 -.918 1.4z"/><path d="m24.835 65.74h-.076a11.8 11.8 0 0 1 -8.979-4.988 1 1 0 0 1 -.143-.637c.436-3.911 4.389-12.867 4.558-13.246 4.949-10.459 5.71-15.569 5.795-16.257l-.524-4.977-1.874-8.877-6.921 4.942a1 1 0 0 1 -1.4-.245l-3.748-5.425a1 1 0 0 1 .124-1.284l9.96-9.71a1 1 0 0 1 1.677.511l4.15 19.725c.007.034.012.068.016.1l.54 5.134a.942.942 0 0 1 0 .184c-.018.215-.484 5.392-5.98 17.006-.029.065-3.737 8.464-4.339 12.273a9.938 9.938 0 0 0 7.235 3.771 1 1 0 0 1 -.074 2zm-11.187-50.152 2.688 3.893 6.806-4.859-1.442-6.883z"/><path d="m51.7 6.752a1 1 0 0 1 -.317-.051l-7.794-2.601a11.186 11.186 0 0 1 -13.178 0l-7.789 2.6a1 1 0 1 1 -.633-1.9l8.257-2.752a1 1 0 0 1 .887.128c3.949 2.75 7.785 2.75 11.734 0a1 1 0 0 1 .887-.128l8.257 2.752a1 1 0 0 1 -.311 1.952z"/><path d="m37.044 14.114a3.67 3.67 0 0 1 -2.768-1.267c-2.852-3.282-4.521-9.328-4.59-9.584a1 1 0 1 1 1.929-.526c.016.058 1.62 5.864 4.171 8.8a1.7 1.7 0 0 0 2.517 0c2.555-2.941 4.154-8.741 4.17-8.8a1 1 0 1 1 1.93.526c-.07.256-1.738 6.3-4.591 9.584a3.667 3.667 0 0 1 -2.768 1.267z"/><path d="m47.544 26.479h-21.1a1 1 0 0 1 0-2h21.1a1 1 0 0 1 0 2z"/><path d="m47.023 31.826h-20.055a1 1 0 1 1 0-2h20.055a1 1 0 0 1 0 2z"/><path d="m37 72a22.954 22.954 0 0 1 -13.174-4.56 1 1 0 0 1 -.4-1.068l6.333-24.852a1 1 0 0 1 1.939.494l-6.159 24.17c7.7 5.113 15.217 5.113 22.922 0l-6.161-24.172a1 1 0 0 1 1.939-.494l6.333 24.852a1 1 0 0 1 -.4 1.068 22.954 22.954 0 0 1 -13.172 4.562z"/></svg>